<svg xmlns="http://www.w3.org/2000/svg" xmlns:xlink="http://www.w3.org/1999/xlink" viewBox="0 0 430 430" width="430" height="430" style="width: 100%; height: 100%; transform: translate3d(0px, 0px, 0px); content-visibility: visible;" preserveAspectRatio="xMidYMid meet"><defs><clipPath id="__lottie_element_2"><rect width="430" height="430" x="0" y="0"/></clipPath><clipPath id="__lottie_element_4"><path d="M0,0 L430,0 L430,430 L0,430z"/></clipPath></defs><g clip-path="url(#__lottie_element_2)"><g clip-path="url(#__lottie_element_4)" style="display: block;" transform="matrix(1,0,0,1,0,0)" opacity="1"><g style="display: block;" transform="matrix(1,0,0,1,214.76600646972656,79.55400085449219)" opacity="1"><g opacity="1" transform="matrix(1,0,0,1,0,0)"><path stroke-linecap="round" stroke-linejoin="round" fill-opacity="0" class="secondary" stroke="rgb(253,230,133)" stroke-opacity="1" stroke-width="12" d=" M-36.86399841308594,64.55400085449219 C-36.86399841308594,64.55400085449219 -86.76599884033203,-21.878999710083008 -86.76599884033203,-21.878999710083008 C-86.76599884033203,-21.878999710083008 -85.92900085449219,-21.979000091552734 -85.92900085449219,-21.979000091552734 C-66.66899871826172,-24.275999069213867 -47.69200134277344,-19.718000411987305 -31.948999404907227,-9.782999992370605 M-31.948999404907227,-9.782999992370605 C-31.948999404907227,-9.782999992370605 0.0010000000474974513,-64.55400085449219 0.0010000000474974513,-64.55400085449219 C0.0010000000474974513,-64.55400085449219 31.950000762939453,-9.784000396728516 31.950000762939453,-9.784000396728516 M36.95100021362305,64.4020004272461 C36.95100021362305,64.4020004272461 86.76599884033203,-21.878999710083008 86.76599884033203,-21.878999710083008 C86.76599884033203,-21.878999710083008 85.92900085449219,-21.979000091552734 85.92900085449219,-21.979000091552734 C66.66899871826172,-24.275999069213867 47.69300079345703,-19.7189998626709 31.950000762939453,-9.784000396728516 M-6.5920000076293945,57.67599868774414 C-6.2829999923706055,47.49599838256836 -4.0960001945495605,37.33599853515625 0,27.736000061035156 M-31.948999404907227,-9.782999992370605 C-20.822999954223633,-2.76200008392334 -11.312000274658203,6.946000099182129 -4.458000183105469,18.81800079345703 C-2.7799999713897705,21.724000930786133 -1.2949999570846558,24.70199966430664 0,27.736000061035156 M31.950000762939453,-9.784000396728516 C20.823999404907227,-2.76200008392334 11.312000274658203,6.946000099182129 4.458000183105469,18.81800079345703 C2.7799999713897705,21.724000930786133 1.2949999570846558,24.70199966430664 0,27.736000061035156"/></g></g><g style="display: block;" transform="matrix(1,0,0,1,215,267)" opacity="1"><g opacity="1" transform="matrix(1,0,0,1,0,0)"><path stroke-linecap="round" stroke-linejoin="round" fill-opacity="0" class="primary" stroke="rgb(253,230,133)" stroke-opacity="1" stroke-width="12" d=" M-99.73100280761719,-37.39099884033203 C-99.73100280761719,-37.39099884033203 -56.36899948120117,0.06400000303983688 -56.36899948120117,0.06400000303983688 C-56.36899948120117,0.06400000303983688 -99.72200012207031,37.51100158691406 -99.72200012207031,37.51100158691406 M99.72200012207031,37.51100158691406 C99.72200012207031,37.51100158691406 56.36800003051758,0.06400000303983688 56.36800003051758,0.06400000303983688 C56.36800003051758,0.06400000303983688 99.73100280761719,-37.39099884033203 99.73100280761719,-37.39099884033203 M65.70999908447266,105.51000213623047 C65.70999908447266,105.51000213623047 0,48.75199890136719 0,48.75199890136719 C0,48.75199890136719 -65.63700103759766,105.44599914550781 -65.63700103759766,105.44599914550781 M-65.70999908447266,-105.38200378417969 C-65.70999908447266,-105.38200378417969 0,-48.625 0,-48.625 C0,-48.625 65.70999908447266,-105.38200378417969 65.70999908447266,-105.38200378417969 M-56.36899948120117,0.06400000303983688 C-56.36899948120117,0.06400000303983688 0,48.75199890136719 0,48.75199890136719 C0,48.75199890136719 56.36800003051758,0.06400000303983688 56.36800003051758,0.06400000303983688 C56.36800003051758,0.06400000303983688 0,-48.625 0,-48.625 C0,-48.625 -56.36899948120117,0.06400000303983688 -56.36899948120117,0.06400000303983688z M0,-130 C-55.22800064086914,-130 -100,-85.22799682617188 -100,-30 C-100,-30 -100,30 -100,30 C-100,85.22899627685547 -55.22800064086914,130 0,130 C55.22800064086914,130 100,85.22899627685547 100,30 C100,30 100,-30 100,-30 C100,-85.22799682617188 55.22800064086914,-130 0,-130z"/></g></g></g></g></svg>